<mxfile host="Electron" agent="Mozilla/5.0 (Windows NT 10.0; Win64; x64) AppleWebKit/537.36 (KHTML, like Gecko) draw.io/24.7.8 Chrome/128.0.6613.36 Electron/32.0.1 Safari/537.36" version="24.7.8">
  <diagram name="Seite-1" id="KPvMatFtawjSY6nTeGH0">
    <mxGraphModel dx="1037" dy="603" grid="1" gridSize="10" guides="1" tooltips="1" connect="1" arrows="1" fold="1" page="1" pageScale="1" pageWidth="827" pageHeight="1169" math="0" shadow="0">
      <root>
        <mxCell id="0" />
        <mxCell id="1" parent="0" />
        <mxCell id="_36KKs7gGeN7UvDyYJys-1" value="" style="rounded=0;whiteSpace=wrap;html=1;fillColor=#2B92E0;strokeColor=none;" vertex="1" parent="1">
          <mxGeometry x="120" y="120" width="360" height="160" as="geometry" />
        </mxCell>
        <mxCell id="_36KKs7gGeN7UvDyYJys-2" value="" style="rounded=0;whiteSpace=wrap;html=1;strokeColor=none;fillColor=#E17A2A;" vertex="1" parent="1">
          <mxGeometry x="160" y="80" width="40" height="40" as="geometry" />
        </mxCell>
        <mxCell id="_36KKs7gGeN7UvDyYJys-3" value="" style="rounded=0;whiteSpace=wrap;html=1;strokeColor=none;gradientColor=none;fillColor=#E17A2A;" vertex="1" parent="1">
          <mxGeometry x="240" y="80" width="40" height="40" as="geometry" />
        </mxCell>
        <mxCell id="_36KKs7gGeN7UvDyYJys-4" value="" style="rounded=0;whiteSpace=wrap;html=1;strokeColor=none;fillColor=#E17A2A;" vertex="1" parent="1">
          <mxGeometry x="320" y="80" width="40" height="40" as="geometry" />
        </mxCell>
        <mxCell id="_36KKs7gGeN7UvDyYJys-5" value="" style="rounded=0;whiteSpace=wrap;html=1;strokeColor=none;gradientColor=none;fillColor=#E17A2A;" vertex="1" parent="1">
          <mxGeometry x="400" y="80" width="40" height="40" as="geometry" />
        </mxCell>
        <mxCell id="_36KKs7gGeN7UvDyYJys-10" value="" style="rounded=0;whiteSpace=wrap;html=1;strokeColor=none;fillColor=#31DEB9;" vertex="1" parent="1">
          <mxGeometry x="160" y="280" width="40" height="40" as="geometry" />
        </mxCell>
        <mxCell id="_36KKs7gGeN7UvDyYJys-11" value="" style="rounded=0;whiteSpace=wrap;html=1;strokeColor=none;gradientColor=none;fillColor=#31DEB9;" vertex="1" parent="1">
          <mxGeometry x="240" y="280" width="40" height="40" as="geometry" />
        </mxCell>
        <mxCell id="_36KKs7gGeN7UvDyYJys-12" value="" style="rounded=0;whiteSpace=wrap;html=1;strokeColor=none;fillColor=#31DEB9;" vertex="1" parent="1">
          <mxGeometry x="320" y="280" width="40" height="40" as="geometry" />
        </mxCell>
        <mxCell id="_36KKs7gGeN7UvDyYJys-13" value="" style="rounded=0;whiteSpace=wrap;html=1;strokeColor=none;gradientColor=none;fillColor=#31DEB9;" vertex="1" parent="1">
          <mxGeometry x="400" y="280" width="40" height="40" as="geometry" />
        </mxCell>
        <mxCell id="_36KKs7gGeN7UvDyYJys-14" value="&lt;font color=&quot;#435461&quot; size=&quot;1&quot; face=&quot;Courier New&quot;&gt;&lt;b style=&quot;font-size: 115px;&quot;&gt;sylo&lt;/b&gt;&lt;/font&gt;" style="text;html=1;align=center;verticalAlign=middle;whiteSpace=wrap;rounded=0;" vertex="1" parent="1">
          <mxGeometry x="120" y="120" width="360" height="160" as="geometry" />
        </mxCell>
      </root>
    </mxGraphModel>
  </diagram>
</mxfile>
